<?xml version="1.0" encoding="UTF-8" standalone="no"?>
<svg
   xmlns:dc="http://purl.org/dc/elements/1.1/"
   xmlns:cc="http://creativecommons.org/ns#"
   xmlns:rdf="http://www.w3.org/1999/02/22-rdf-syntax-ns#"
   xmlns:svg="http://www.w3.org/2000/svg"
   xmlns="http://www.w3.org/2000/svg"
   xmlns:sodipodi="http://sodipodi.sourceforge.net/DTD/sodipodi-0.dtd"
   xmlns:inkscape="http://www.inkscape.org/namespaces/inkscape"
   version="1.1"
   id="svg913"
   width="750.91046"
   height="400"
   viewBox="0 0 750.91044 400"
   sodipodi:docname="minichord_layout_web.svg"
   inkscape:version="1.0.2 (e86c870879, 2021-01-15)">
  <metadata
     id="metadata919">
    <rdf:RDF>
      <cc:Work
         rdf:about="">
        <dc:format>image/svg+xml</dc:format>
        <dc:type
           rdf:resource="http://purl.org/dc/dcmitype/StillImage" />
        <dc:title></dc:title>
      </cc:Work>
    </rdf:RDF>
  </metadata>
  <defs
     id="defs917" />
  <sodipodi:namedview
     pagecolor="#ffffff"
     bordercolor="#666666"
     borderopacity="1"
     objecttolerance="10"
     gridtolerance="10"
     guidetolerance="10"
     inkscape:pageopacity="0"
     inkscape:pageshadow="2"
     inkscape:window-width="1920"
     inkscape:window-height="1026"
     id="namedview915"
     showgrid="false"
     inkscape:zoom="0.52636414"
     inkscape:cx="648.13437"
     inkscape:cy="761.81084"
     inkscape:window-x="0"
     inkscape:window-y="30"
     inkscape:window-maximized="1"
     inkscape:current-layer="g921"
     inkscape:document-rotation="0"
     fit-margin-top="0"
     fit-margin-left="0"
     fit-margin-right="0"
     fit-margin-bottom="0" />
  <g
     inkscape:groupmode="layer"
     inkscape:label="Image"
     id="g921">
    <path
       id="path1662"
       style="fill:none;stroke:#000000;stroke-width:0.5;stroke-opacity:1;stroke-miterlimit:4;stroke-dasharray:none"
       d="M 548.71598,0.50383639 C 541.47055,0.47669662 533.06749,0.59363633 523.33837,0.85249247 488.087,1.7904059 497.34942,1.0484374 370.34369,13.103042 213.04538,28.032832 202.46403,29.037218 155.65365,33.472711 131.02525,35.806364 103.92719,38.376154 95.435334,39.183292 72.342572,41.378217 64.953647,43.115257 52.164594,49.355501 41.808206,54.408762 33.45947,60.51174 25.703438,68.700573 2.1336307,93.585643 -5.5364607,128.69357 5.3721766,161.7626 c 9.1795094,27.82725 29.9883134,49.57797 57.6441104,60.25339 3.6519,1.40968 68.165333,19.24196 94.129993,26.01907 9.87899,2.57854 22.43417,5.11771 32.83788,6.64 19.21989,2.8123 27.64736,3.30249 56.79187,3.30398 23.03374,9.9e-4 29.92385,0.27661 38.23895,1.52768 26.12322,3.93041 49.51184,12.81655 71.14872,27.03298 13.31062,8.74569 23.64688,18.08777 33.82517,30.57199 13.58075,16.65747 26.53788,28.97388 45.28428,43.04494 16.38834,12.3011 26.7953,18.29019 42.78874,24.62443 17.48398,6.92462 37.34171,11.69428 58.95893,14.16088 8.00726,0.91364 27.95747,0.65714 37.31576,-0.47977 37.06959,-4.50352 72.09207,-19.19064 101.00134,-42.35637 7.72178,-6.18765 20.04778,-18.02904 26.33479,-25.29844 25.59617,-29.5958 41.90282,-65.88639 47.02274,-104.6512 7.46723,-56.53747 -9.67469,-113.71615 -47.02662,-156.862192 -5.6617,-6.539979 -17.77196,-18.33425 -24.34073,-23.7057 C 648.12324,21.706639 613.95279,6.9481605 576.07799,1.8586422 569.65186,0.99512198 560.79166,0.54907051 548.71598,0.50383639 Z m -74.63444,30.48263661 -0.13607,8.933948 0.10886,9.572017 9.97321,0.63807 h 9.72832 l -0.13508,-9.572019 -0.13504,-9.572016 h -9.7021 z m -18.65788,2.237614 v 7.127542 l 0.34883,7.475223 5.09982,0.206865 4.75099,-0.140825 0.13797,-7.334403 0.13703,-7.334402 h -5.23685 z m -378.43631,34.88406 -4.617826,0.0369 -9.258972,0.134993 -0.135078,9.831326 -0.135073,9.831321 9.837172,-0.134993 9.837177,-0.134997 0.136044,-9.134011 -0.443123,-9.831322 -5.220321,-0.599223 z m 17.965989,0.171899 -0.130217,20.014216 -0.130217,18.895398 h 19.913405 19.9134 L 134.3895,88.294262 134.25928,68.280046 h -19.65297 z m 158.467621,0 v 20.138528 18.771086 h 19.77736 19.77735 V 88.418574 68.280046 h -19.77735 z m -105.97678,0 v 19.807341 l 0.33137,19.102273 h 19.90174 19.57038 V 88.418559 68.280046 h -19.90174 z m 158.7164,0 v 20.144341 18.765273 h 19.77735 19.77736 l 0.13022,-18.895413 0.13021,-20.014201 h -19.90757 z m 52.73961,0 v 19.807341 l 0.3372,19.102273 h 19.77736 19.44017 l 0.13021,-18.895413 0.13021,-20.014201 h -19.90757 z m 52.73964,0 v 19.807341 l 0.33136,19.102273 h 19.90174 19.57038 V 88.418559 68.280046 h -19.90174 z m -211.20726,0 -0.13022,19.640296 0.10884,19.269318 h 19.89786 19.65879 0.27307 l 0.13313,-19.765596 -0.13798,-19.144018 h -19.90175 z m 340.72502,3.239866 c -1.67846,0.0091 -2.3082,0.383338 -3.0669,1.82389 -0.4266,0.809961 -0.57233,32.685108 -0.57233,125.363698 v 124.27791 l 1.03101,1.31013 c 0.56715,0.7206 1.5187,1.31203 2.11456,1.31402 1.30481,0.004 49.07984,-6.42519 49.96721,-6.7245 0.42753,-0.14422 0.62192,-1.44054 0.62192,-4.14891 0,-4.47527 0.30769,-4.19318 -5.2242,-4.79766 -5.11191,-0.55861 -4.7803,-0.13689 -4.61979,-5.86986 l 0.1419,-5.04919 4.12802,-0.58563 c 5.88096,-0.834 5.57407,-0.56712 5.57407,-4.84525 0,-4.19662 0.38893,-3.8743 -5.47297,-4.5403 -4.82309,-0.54798 -4.53083,-0.15543 -4.37102,-5.86403 l 0.1419,-5.04919 4.12802,-0.58563 c 5.8828,-0.83426 5.57407,-0.56534 5.57407,-4.86273 v -3.72256 l -1.61701,-0.27387 c -0.88936,-0.15084 -3.07233,-0.44049 -4.85105,-0.64391 l -3.23403,-0.37002 -0.1419,-5.08319 c -0.1619,-5.81116 -0.75398,-5.16087 5.57502,-6.1243 1.8938,-0.28829 3.62898,-0.63871 3.85596,-0.77889 0.70035,-0.43259 0.50456,-7.64872 -0.20891,-7.6986 -0.34207,-0.0239 -2.52504,-0.3072 -4.85105,-0.62933 l -4.22912,-0.58563 -0.1419,-5.07542 c -0.13772,-4.9357 -0.11036,-5.08167 0.99508,-5.31918 1.15127,-0.24736 8.05956,-1.27518 8.57099,-1.27518 0.15279,0 0.27792,-1.77674 0.27792,-3.94787 v -3.9469 l -2.11456,-0.29136 c -1.163,-0.16009 -3.34598,-0.45573 -4.85104,-0.65749 l -2.73649,-0.36711 -0.1419,-5.07736 c -0.13772,-4.9375 -0.11036,-5.08361 0.99508,-5.32113 1.15127,-0.24735 8.05956,-1.27518 8.57099,-1.27518 0.15279,0 0.27792,-1.77674 0.27792,-3.94787 v -3.9469 l -2.11456,-0.29136 c -1.163,-0.16009 -3.34598,-0.45573 -4.85104,-0.65749 l -2.73649,-0.36711 -0.1419,-5.07736 c -0.13772,-4.9375 -0.11036,-5.08361 0.99508,-5.32113 1.15127,-0.24735 8.05956,-1.27518 8.57099,-1.27518 0.15279,0 0.27792,-1.76516 0.27792,-3.92262 v -3.92262 l -1.61701,-0.29038 c -0.88936,-0.15957 -3.12831,-0.43847 -4.97544,-0.62059 l -3.35842,-0.33118 v -5.1133 -5.11329 l 1.36825,-0.27777 c 1.6497,-0.33586 7.68555,-1.28349 8.20947,-1.28876 0.20523,-0.002 0.37315,-1.76701 0.37315,-3.92165 v -3.91777 l -3.75202,-0.55746 c -2.06356,-0.30673 -4.30251,-0.55746 -4.97544,-0.55746 -1.22356,0 -1.22341,-0.009 -1.22341,-5.18128 v -5.18225 l 1.36825,-0.26125 c 0.75253,-0.14383 2.37577,-0.39727 3.60719,-0.56329 5.36168,-0.72287 4.97543,-0.37423 4.97543,-4.48494 0,-2.01328 -0.22145,-3.79745 -0.49172,-3.96438 -0.27031,-0.16694 -2.50926,-0.55215 -4.97543,-0.85562 l -4.48372,-0.55163 v -5.10165 -5.10164 l 1.36825,-0.26125 c 0.75253,-0.14383 2.37577,-0.39727 3.60719,-0.56329 5.36168,-0.72287 4.97543,-0.37423 4.97543,-4.48494 0,-2.01328 -0.22145,-3.79745 -0.49172,-3.96438 -0.27031,-0.16694 -2.50926,-0.55215 -4.97543,-0.85562 l -4.48372,-0.55163 v -5.09582 -5.09582 l 3.60719,-0.57009 c 7.05517,-1.11365 6.34368,-0.58004 6.34368,-4.75104 0,-2.01328 -0.18871,-3.7776 -0.41883,-3.91971 -0.23006,-0.14211 -2.46901,-0.53085 -4.97543,-0.86436 l -4.55661,-0.60602 v -5.131746 c 0,-2.822358 0.16792,-5.133649 0.37316,-5.135638 0.52391,-0.0053 6.55977,-0.952901 8.20947,-1.288766 1.35282,-0.275451 1.36824,-0.321312 1.36824,-4.186786 0,-2.150019 -0.18652,-4.025303 -0.41495,-4.166388 -0.67715,-0.418259 -48.154,-9.250118 -49.68052,-9.241814 z m 140.57551,8.630936 c -2.2477,0.0057 -4.5275,0.489963 -6.48558,1.450953 -12.17195,5.973774 -10.56076,23.861259 2.47996,27.531199 4.87712,1.37253 10.55384,-0.17044 14.37338,-3.90708 7.17229,-7.01661 5.13072,-18.86799 -4.07557,-23.657141 -1.82883,-0.951334 -4.04449,-1.423659 -6.29219,-1.417931 z M 404.83259,121.22525 h -27.02574 v 19.9608 19.54707 h 20.33029 19.35465 v -19.07604 -20.43183 z m -264.48423,0 h -7.33294 -18.65788 l -0.13022,20.28034 -0.13022,19.22753 h 19.78319 19.78319 l 0.13021,-19.22267 0.13022,-20.2852 h -1.1253 z m 198.28276,0 h -12.44442 -1.11947 v 20.07637 l 0.33137,19.4315 h 19.90757 19.5762 l -0.13021,-19.23338 -0.13022,-20.27449 h -18.65788 z m 118.65246,0 h -7.3329 -18.65788 l -0.13026,19.65198 0.1108,19.85589 h 19.78318 19.54222 l 0.13021,-19.22267 0.1302,-20.2852 h -1.12529 z m -290.18643,0 -0.13021,19.65196 0.11077,19.85591 h 19.78319 19.54219 v -19.35769 -20.15018 h -19.65297 z m 52.73962,0 -0.13022,19.65196 0.11078,19.85591 h 19.78319 19.54219 v -19.35769 -20.15018 h -19.65297 z m 52.73962,0 -0.13022,19.65196 0.11078,19.85591 h 19.78318 19.5422 v -19.35769 -20.15018 h -19.65297 z m 304.19055,1.52672 c -2.86974,0.095 -5.15679,3.46456 -3.12323,6.36613 0.43972,0.62746 1.27933,1.33389 1.86578,1.57041 0.58641,0.23651 1.12878,0.44493 1.20595,0.46228 0.0772,0.0173 0.88677,-0.28056 1.79872,-0.66137 2.97501,-1.24231 3.37334,-5.10573 0.71815,-6.96438 -0.81273,-0.56893 -1.66184,-0.79967 -2.46537,-0.77307 z m 104.80774,22.52862 c -2.32437,-10e-4 -4.62486,0.41594 -6.23676,1.2538 -12.53879,6.51767 -10.68176,23.978 2.95024,27.74001 6.48523,1.7897 14.15422,-2.09755 17.05156,-8.64357 0.66805,-1.50929 0.98245,-3.31577 0.98245,-5.6387 0,-5.90453 -3.07362,-10.84432 -8.36783,-13.449 -1.70742,-0.84002 -4.05528,-1.26103 -6.37966,-1.26254 z m -456.01616,29.15017 h -19.77736 -19.77735 l -0.13022,20.02587 -0.13022,19.43927 h 19.90758 19.90757 v -19.56941 z m 66.17329,0 v 19.89573 19.56941 h 19.90758 19.90756 l -0.13021,-19.43927 -0.13021,-20.02587 h -19.77736 z m 198.02236,0 h -19.77736 -19.77736 l -0.13025,20.02587 -0.13021,19.43927 h 19.90756 19.90762 v -19.56941 z m -240.39422,0 h -10.45133 l -0.0768,39.46514 h 20.02613 19.68893 v -19.56359 -19.90155 h -19.61993 z m -116.09576,0 -0.13021,20.02587 -0.13022,19.43927 h 19.9134 19.9134 l -0.13021,-19.43927 -0.13022,-20.02587 h -19.65297 z m 211.45601,0 -0.13022,20.02587 -0.13021,19.43927 h 19.9134 19.9134 l -0.13021,-19.43927 -0.13022,-20.02587 h -19.65297 z m 52.73964,0 -0.13026,20.02587 -0.13021,19.43927 h 19.91344 19.91338 l -0.13021,-19.43927 -0.1302,-20.02587 h -19.65297 z m 179.48104,10.94237 c -0.98713,-0.008 -2.00794,0.36256 -2.87546,1.22952 -1.51074,1.50985 -1.58622,3.6517 -0.19046,5.42505 0.76239,0.96867 1.48457,1.31012 2.76953,1.31012 2.34194,0 3.45435,-0.67847 4.08628,-2.49012 1.03533,-2.96808 -1.26715,-5.45485 -3.78989,-5.47457 z M 681.805,210.25396 c -1.67319,-0.0359 -3.3724,0.2041 -5.02793,0.75364 -3.55634,1.18053 -7.88328,5.42808 -9.06365,8.89704 -2.98875,8.7834 2.50075,18.16252 11.50569,19.65779 1.28585,0.21353 2.67395,0.32521 3.08442,0.24765 0.41048,-0.0776 1.6419,-0.28906 2.73649,-0.47005 4.14111,-0.68474 8.38381,-4.24114 10.34443,-8.67075 1.23824,-2.79767 1.31322,-7.84367 0.16225,-10.93363 -2.12277,-5.69901 -7.76606,-9.35348 -13.7417,-9.48169 z m -104.84193,37.7811 c -3.61466,0 -5.42542,4.2091 -2.89785,6.73519 2.16586,2.16455 5.61861,1.43059 6.7052,-1.42571 0.94274,-2.47804 -1.08753,-5.30948 -3.80735,-5.30948 z m -90.46453,4.9987 c -2.2476,0.0453 -4.54078,0.85505 -6.53802,2.60764 -5.11823,4.49117 -4.76279,12.59861 0.72198,16.45967 1.12575,0.7925 2.90009,1.5941 3.94249,1.78116 6.29243,1.12917 11.98115,-3.07537 12.49202,-9.2321 0.56924,-6.86012 -4.87458,-11.7323 -10.61847,-11.61637 z m 197.55396,6.438 c 2.49772,0 2.64046,0.14501 8.37565,8.52896 l 4.30395,6.29135 v 3.92748 c 0,2.39139 -0.2341,4.16043 -0.59765,4.52378 -0.43087,0.43062 -3.88805,0.59631 -12.42113,0.59631 -13.80857,0 -13.08146,0.32176 -12.77477,-5.65716 l 0.1817,-3.54192 4.65671,-6.71284 c 2.5608,-3.69207 5.00708,-6.99255 5.437,-7.3344 0.42988,-0.34186 1.70713,-0.62156 2.83854,-0.62156 z m -4.68099,32.31818 c 1.33272,-0.002 2.86834,0.003 4.63726,0.003 10.59205,0 12.15712,0.0992 12.42107,0.78667 0.16613,0.43259 0.30226,2.46153 0.30226,4.50921 v 3.72354 l -4.34092,6.30494 c -2.38751,3.46805 -4.8404,6.80938 -5.45059,7.42472 -1.1132,1.1226 -3.42076,1.43601 -5.23396,0.71091 -0.46485,-0.18589 -3.03198,-3.47064 -5.70523,-7.29944 l -4.86075,-6.96147 -0.19146,-3.54191 c -0.2836,-5.24072 -0.90677,-5.64182 8.42232,-5.66008 z m -102.2656,18.53121 c -1.13121,-0.0346 -2.30019,0.43899 -3.25349,1.46164 -1.78697,1.91695 -0.89657,5.33825 1.65687,6.36807 1.41661,0.57133 1.54045,0.57228 3.02606,0.008 0.70343,-0.26728 1.64065,-1.24359 2.08252,-2.16963 0.69557,-1.45777 0.71164,-1.87389 0.12145,-3.101 -0.78776,-1.63788 -2.17904,-2.52243 -3.63341,-2.56685 z" />
  </g>
</svg>
