<?xml version="1.0" encoding="UTF-8" standalone="no"?>
<svg
   xmlns:dc="http://purl.org/dc/elements/1.1/"
   xmlns:cc="http://creativecommons.org/ns#"
   xmlns:rdf="http://www.w3.org/1999/02/22-rdf-syntax-ns#"
   xmlns:svg="http://www.w3.org/2000/svg"
   xmlns="http://www.w3.org/2000/svg"
   xmlns:sodipodi="http://sodipodi.sourceforge.net/DTD/sodipodi-0.dtd"
   xmlns:inkscape="http://www.inkscape.org/namespaces/inkscape"
   version="1.1"
   id="svg913"
   width="1508.2275"
   height="803.41266"
   viewBox="0 0 1508.2275 803.41266"
   sodipodi:docname="minichord_layout_web.svg"
   inkscape:version="1.0.2 (e86c870879, 2021-01-15)">
  <metadata
     id="metadata919">
    <rdf:RDF>
      <cc:Work
         rdf:about="">
        <dc:format>image/svg+xml</dc:format>
        <dc:type
           rdf:resource="http://purl.org/dc/dcmitype/StillImage" />
        <dc:title></dc:title>
      </cc:Work>
    </rdf:RDF>
  </metadata>
  <defs
     id="defs917" />
  <sodipodi:namedview
     pagecolor="#ffffff"
     bordercolor="#666666"
     borderopacity="1"
     objecttolerance="10"
     gridtolerance="10"
     guidetolerance="10"
     inkscape:pageopacity="0"
     inkscape:pageshadow="2"
     inkscape:window-width="1920"
     inkscape:window-height="1026"
     id="namedview915"
     showgrid="false"
     inkscape:zoom="1.0201923"
     inkscape:cx="512.65784"
     inkscape:cy="293.94666"
     inkscape:window-x="0"
     inkscape:window-y="30"
     inkscape:window-maximized="1"
     inkscape:current-layer="g921"
     inkscape:document-rotation="0"
     fit-margin-top="0"
     fit-margin-left="0"
     fit-margin-right="0"
     fit-margin-bottom="0" />
  <g
     inkscape:groupmode="layer"
     inkscape:label="Image"
     id="g921">
    <path
       id="path1662"
       style="fill:none;stroke:#000000;stroke-opacity:1"
       d="m 1102.3469,0.50771484 c -14.5624,-0.05458 -31.4515,0.180594 -51.0058,0.70117196 -70.85083,1.88621 -52.23453,0.394059 -307.50007,24.6367192 -316.14984,30.02486 -337.41703,32.04475 -431.5,40.96484 -49.5,4.69314 -103.96368,9.86117 -121.03125,11.48438 -46.41355,4.41415 -61.26436,7.90746 -86.96875,20.45703 -20.815037,10.162464 -37.594947,22.435984 -53.183597,38.904304 -47.3723503,50.04563 -62.78827,120.65015 -40.86328,187.15429 18.44966,55.96257 60.27274,99.7048 115.857417,121.17383 7.33986,2.83495 137.00376,38.69693 189.18946,52.32617 19.85552,5.18563 45.08985,10.29209 66,13.35352 38.62956,5.65572 55.56772,6.64153 114.14453,6.64453 46.29491,0.002 60.14317,0.55629 76.85547,3.07227 52.50439,7.90434 99.51258,25.77498 143,54.36523 26.75267,17.5882 47.52726,36.37578 67.98434,61.48242 27.2956,33.49936 53.3378,58.26853 91.0157,86.56641 32.9385,24.73838 53.8552,36.78288 86,49.52148 35.1406,13.9259 75.05213,23.51802 118.50003,28.47852 16.0936,1.8374 56.191,1.32155 75,-0.96484 74.5052,-9.05691 144.896,-38.59374 203,-85.18165 15.5198,-12.44381 40.2935,-36.25767 52.9296,-50.87695 51.4451,-59.51925 84.2194,-132.50218 94.5098,-210.46094 15.0082,-113.70084 -19.4449,-228.6912 -94.5176,-315.46093 -11.3793,-13.15236 -35.7194,-36.87147 -48.9218,-47.673834 -58.6981,-48.02764 -127.3764,-77.707981 -203.5,-87.9433612 -12.9157,-1.7366 -30.7236,-2.63364096 -54.9942,-2.72460996 z M 952.34107,61.810446 l -0.2735,17.9668 0.2188,19.25 h 20.0449 19.5527 l -0.2715,-17.9668 -0.2714,-19.25 h -19.5 z m -37.5,4.5 v 14.33399 15.0332 l 10.9511,0.41602 9.5489,-0.28321 0.2773,-14.75 0.2754,-14.75 h -10.5254 z M 154.23165,136.46473 h -9.28125 -18.60937 l -0.27149,20.11719 -0.27148,19.77148 19.77148,-0.27148 19.1543,-0.27149 v -18.36914 -20.97656 z m 36.10938,0.34572 -0.26172,40.25 -0.26172,37.99997 h 40.02344 40.02343 l -0.26171,-37.99997 -0.26172,-40.25 h -39.5 z m 318.5,0 v 40.5 37.74997 h 39.75 39.75 v -37.74997 -40.5 h -39.75 z m -213,0 v 39.83396 l 0.66601,38.41601 h 40 39.33399 v -37.75 -40.49997 h -40 z m 319,0 v 40.51169 37.73828 h 39.75 39.75 l 0.26172,-38 0.26171,-40.24997 h -40.01171 z m 106,0 v 39.83396 l 0.67773,38.41601 h 39.75 39.07231 l 0.2617,-38 0.2617,-40.24997 h -40.01172 z m 106.00004,0 v 39.83396 l 0.666,38.41601 h 40 39.334 v -37.75 -40.49997 h -40 z m -424.50004,0 -0.26172,39.49802 0.21875,38.75195 h 39.99219 39.51171 0.54883 l 0.26758,-39.75 -0.27734,-38.49997 h -40 z m 684.81447,6.5156 c -3.3735,0.0184 -4.6392,0.77092 -6.1641,3.66797 -0.8574,1.62889 -1.1503,65.73205 -1.1503,252.11523 v 249.93164 l 2.0722,2.63477 c 1.1399,1.44917 3.0524,2.63858 4.25,2.64258 2.6225,0.009 98.6443,-12.92151 100.4278,-13.52344 0.8593,-0.29003 1.25,-2.89703 1.25,-8.34375 0,-9.00008 0.6184,-8.43277 -10.5,-9.64844 -10.2743,-1.12339 -9.6078,-0.27528 -9.2852,-11.80469 l 0.2852,-10.15429 8.2968,-1.17774 c 11.82,-1.67722 11.2032,-1.14052 11.2032,-9.74414 0,-8.43969 0.7817,-7.79149 -11,-9.13086 -9.6938,-1.10203 -9.1064,-0.31258 -8.7852,-11.79297 l 0.2852,-10.15429 8.2968,-1.17774 c 11.8237,-1.67775 11.2032,-1.13693 11.2032,-9.77929 v -7.48633 l -3.25,-0.55078 c -1.7875,-0.30334 -6.175,-0.88584 -9.75,-1.29493 l -6.5,-0.74414 -0.2852,-10.22265 c -0.3254,-11.68666 -1.5154,-10.37888 11.2051,-12.31641 3.8063,-0.57977 7.2938,-1.28449 7.75,-1.5664 1.4076,-0.86997 1.0141,-15.38211 -0.4199,-15.48243 -0.6875,-0.0481 -5.075,-0.6178 -9.75,-1.26562 l -8.5,-1.17774 -0.2852,-10.20703 c -0.2768,-9.92604 -0.2218,-10.2196 2,-10.69726 2.3139,-0.49744 16.1987,-2.56446 17.2266,-2.56446 0.3071,0 0.5586,-3.57315 0.5586,-7.93945 v -7.9375 l -4.25,-0.58594 c -2.3375,-0.32196 -6.725,-0.91651 -9.75,-1.32226 l -5.5,-0.73828 -0.2852,-10.21094 c -0.2768,-9.92965 -0.2218,-10.2235 2,-10.70117 2.3139,-0.49744 16.1987,-2.56446 17.2266,-2.56446 0.3071,0 0.5586,-3.57315 0.5586,-7.93945 v -7.9375 l -4.25,-0.58594 c -2.3375,-0.32196 -6.725,-0.91651 -9.75,-1.32226 l -5.5,-0.73828 -0.2852,-10.21094 c -0.2768,-9.92965 -0.2218,-10.2235 2,-10.70117 2.3139,-0.49744 16.1987,-2.56446 17.2266,-2.56446 0.3071,0 0.5586,-3.54988 0.5586,-7.88867 v -7.88867 l -3.25,-0.58398 c -1.7875,-0.3209 -6.2875,-0.88178 -10,-1.24805 l -6.75,-0.66602 v -10.2832 -10.2832 l 2.75,-0.5586 c 3.3157,-0.67545 15.447,-2.58119 16.5,-2.59179 0.4125,-0.004 0.75,-3.55358 0.75,-7.88672 v -7.87891 l -7.5411,-1.12109 c -4.1475,-0.61686 -8.6475,-1.1211 -10,-1.1211 -2.4592,0 -2.4589,-0.0175 -2.4589,-10.41992 v -10.42187 l 2.75,-0.52539 c 1.5125,-0.28926 4.775,-0.79894 7.25,-1.13282 10.7763,-1.45373 10,-0.7526 10,-9.01953 0,-4.04884 -0.4451,-7.63693 -0.9883,-7.97265 -0.5433,-0.33572 -5.0433,-1.1104 -10,-1.72071 l -9.0117,-1.10937 v -10.25977 -10.25976 l 2.75,-0.52539 c 1.5125,-0.28926 4.775,-0.79894 7.25,-1.13282 10.7763,-1.45373 10,-0.7526 10,-9.01953 0,-4.04884 -0.4451,-7.63693 -0.9883,-7.97265 -0.5433,-0.33572 -5.0433,-1.1104 -10,-1.72071 l -9.0117,-1.10937 v -10.24805 -10.24805 l 7.25,-1.14648 c 14.18,-2.23963 12.75,-1.16651 12.75,-9.55469 0,-4.04884 -0.3793,-7.59702 -0.8418,-7.88281 -0.4624,-0.28579 -4.9624,-1.06757 -10,-1.73828 l -9.1582,-1.21875 v -10.32031 c 0,-5.67596 0.3375,-10.32413 0.75,-10.32813 1.053,-0.0106 13.1843,-1.91635 16.5,-2.5918 2.719,-0.55395 2.75,-0.64618 2.75,-8.41992 0,-4.32384 -0.3749,-8.09517 -0.834,-8.3789 -1.361,-0.84115 -96.7835,-18.60264 -99.8516,-18.58594 z m 282.5391,17.35742 c -4.5176,0.0115 -9.0997,0.98535 -13.0352,2.91797 -24.4641,12.01368 -21.2258,47.98667 4.9844,55.36719 9.8024,2.76025 21.2119,-0.34277 28.8887,-7.85743 14.4154,-14.11089 10.3121,-37.94485 -8.1914,-47.57617 -3.6757,-1.9132 -8.1289,-2.86308 -12.6465,-2.85156 z m -556.53523,82.60352 h -54.31834 v 40.14257 39.31055 h 40.86134 38.9004 v -38.36328 -41.08984 z m -531.58006,0 h -14.73828 -37.5 l -0.26172,40.78519 -0.26172,38.66793 h 39.76172 39.76172 l 0.26172,-38.65816 0.26171,-40.79496 h -2.26171 z m 398.52344,0 h -25.01172 -2.25 v 40.375 l 0.66601,39.07812 h 40.01172 39.3457 l -0.26171,-38.67969 -0.26172,-40.77343 h -37.5 z m 238.47652,0 h -14.7382 -37.5 l -0.2618,39.52152 0.2227,39.9316 h 39.7617 39.2774 l 0.2617,-38.65816 0.2617,-40.79496 h -2.2617 z m -583.23824,0 -0.26172,39.52148 0.22265,39.93164 h 39.76172 39.27735 v -38.92969 -40.52343 h -39.5 z m 106,0 -0.26172,39.52148 0.22265,39.93164 h 39.76172 39.27735 v -38.92969 -40.52343 h -39.5 z m 106,0 -0.26172,39.52148 0.22265,39.93164 h 39.76172 39.27735 v -38.92969 -40.52343 h -39.5 z m 611.38477,3.07034 c -5.7678,0.19102 -10.3645,6.96748 -6.2773,12.80273 0.8838,1.26187 2.5713,2.68256 3.75,3.15821 1.1786,0.47564 2.2687,0.89478 2.4238,0.92968 0.1552,0.0349 1.7823,-0.56423 3.6152,-1.33007 5.9794,-2.49836 6.78,-10.26797 1.4434,-14.00586 -1.6335,-1.14415 -3.3401,-1.60818 -4.9551,-1.55469 z m 210.6504,45.30664 c -4.6717,-0.003 -9.2954,0.83648 -12.5351,2.52148 -25.2014,13.10749 -21.469,48.22145 5.9296,55.78711 13.0345,3.59923 28.4482,-4.21832 34.2715,-17.38281 1.3427,-3.03529 1.9746,-6.66825 1.9746,-11.33984 0,-11.87441 -6.1776,-21.80868 -16.8183,-27.04688 -3.4317,-1.68934 -8.1506,-2.53602 -12.8223,-2.53906 z m -916.53517,58.62305 h -39.75 -39.75 l -0.26172,40.27343 -0.26172,39.09375 h 40.01172 40.01172 v -39.35547 z m 133,0 v 40.01171 39.35547 h 40.01172 40.01171 l -0.26171,-39.09375 -0.26172,-40.27343 h -39.75 z m 398.00004,0 h -39.75 -39.75 l -0.2618,40.27343 -0.2617,39.09375 h 40.0117 40.0118 v -39.35547 z m -483.16215,0 h -21.00586 l -0.1543,79.36718 h 40.25 39.57227 v -39.34375 -40.02343 h -39.4336 z m -233.33789,0 -0.26172,40.27343 -0.26172,39.09375 h 40.02344 40.02343 l -0.26171,-39.09375 -0.26172,-40.27343 h -39.5 z m 425,0 -0.26172,40.27343 -0.26172,39.09375 h 40.02344 40.02343 l -0.26171,-39.09375 -0.26172,-40.27343 h -39.5 z m 106.00004,0 -0.2618,40.27343 -0.2617,39.09375 h 40.0235 40.0234 l -0.2617,-39.09375 -0.2617,-40.27343 h -39.5 z m 360.73433,22.00587 c -1.984,-0.0155 -4.0357,0.72915 -5.7793,2.47265 -3.0364,3.03642 -3.1881,7.34383 -0.3828,10.91016 1.5323,1.94807 2.9838,2.63476 5.5664,2.63476 4.707,0 6.9428,-1.36447 8.2129,-5.00781 2.0809,-5.96903 -2.5468,-10.9701 -7.6172,-11.00976 z M 1369.8391,422.33 c -3.3629,-0.0722 -6.7781,0.41046 -10.1055,1.51562 -7.1478,2.37413 -15.8444,10.91626 -18.2168,17.89258 -6.007,17.66404 5.0262,36.52611 23.125,39.5332 2.5844,0.42942 5.3743,0.65403 6.1993,0.49805 0.825,-0.15599 3.3,-0.58132 5.5,-0.94531 8.3231,-1.37707 16.8504,-8.52924 20.791,-17.4375 2.4887,-5.62631 2.6394,-15.77416 0.3261,-21.98829 -4.2665,-11.46112 -15.6088,-18.81051 -27.6191,-19.06835 z M 1159.12,498.31046 c -7.265,0 -10.9044,8.46479 -5.8243,13.54493 4.3531,4.35308 11.2927,2.87702 13.4766,-2.86719 1.8948,-4.98351 -2.1858,-10.67774 -7.6523,-10.67774 z M 977.29767,508.3632 c -4.5174,0.0912 -9.1264,1.71957 -13.1406,5.24414 -10.287,9.03207 -9.5726,25.3367 1.4511,33.10156 2.2626,1.59378 5.8288,3.20584 7.9239,3.58203 12.647,2.27085 24.0806,-6.18477 25.1074,-18.5664 1.1441,-13.79619 -9.7973,-23.59447 -21.3418,-23.36133 z m 397.05863,12.94726 c 5.0201,0 5.307,0.29163 16.834,17.15235 l 8.6504,12.65234 v 7.89844 c 0,4.80925 -0.4705,8.36692 -1.2012,9.09765 -0.866,0.86601 -7.8145,1.19922 -24.9649,1.19922 -27.7535,0 -26.2921,0.64708 -25.6757,-11.37695 l 0.3652,-7.12305 9.3594,-13.5 c 5.1469,-7.425 10.0636,-14.0625 10.9277,-14.75 0.864,-0.6875 3.4311,-1.25 5.7051,-1.25 z m -9.4082,64.99414 c 2.6786,-0.005 5.765,0.006 9.3203,0.006 21.2887,0 24.4343,0.19956 24.9648,1.58204 0.3339,0.86997 0.6075,4.95032 0.6075,9.06835 v 7.48829 l -8.7247,12.67968 c -4.7986,6.97449 -9.7286,13.69414 -10.955,14.93164 -2.2374,2.25762 -6.8753,2.88792 -10.5196,1.42969 -0.9343,-0.37384 -6.0939,-6.97969 -11.4668,-14.67969 l -9.7695,-14 -0.3848,-7.12304 c -0.57,-10.53946 -1.8225,-11.3461 16.9278,-11.38282 z m -205.541,37.26758 c -2.2736,-0.0695 -4.6231,0.88284 -6.5391,2.93946 -3.5916,3.85512 -1.802,10.73559 3.3301,12.80664 2.8472,1.14897 3.0961,1.15088 6.082,0.0156 1.4138,-0.53751 3.2975,-2.50094 4.1856,-4.36328 1.398,-2.93168 1.4303,-3.76852 0.2441,-6.23633 -1.5833,-3.29389 -4.3796,-5.07279 -7.3027,-5.16211 z"
       sodipodi:nodetypes="sssssscsssscsssssssssssssscccccccccccccccccccccccccccccccccccccccccccccccccccccccccccccccccccccccccccccccccccccccccccccssscssssscccsscccscccccssssccssscccccssscccccsssccsccccssccssccssssccccssssccccssccscsssssssssscccccccccccccccccccccccccccccccccccccccccccccccccccccccccccccccccccccsssssssssssssscccccccccccccccccccccccccccccccccccccccccccccccccccccccccccccccssssssssssssssssssssssssssccssssccssssssccsscccssssssssss" />
  </g>
</svg>
